<?xml version="1.0" encoding="UTF-8"?><svg id="Fondo_Blanco" xmlns="http://www.w3.org/2000/svg" xmlns:xlink="http://www.w3.org/1999/xlink" viewBox="0 0 1504.69 649.61"><defs><linearGradient id="linear-gradient" x1="232.95" y1="743.77" x2="1250.92" y2="30.98" gradientUnits="userSpaceOnUse"><stop offset="0" stop-color="#c49f58"/><stop offset=".25" stop-color="#a89163"/><stop offset=".5" stop-color="#b38b46"/><stop offset=".75" stop-color="#e8d1a1"/><stop offset="1" stop-color="#a57d2d"/></linearGradient></defs><path d="M915.08,299.14c-1.09-1.72-.06-2.85.91-4.02,18.54-22.48,42.44-34.99,71.13-39.51,26.15-4.12,51.22.37,76.39,6.7,21.28,5.35,42.82,9.71,64.27,14.41,30.06,6.58,60.13,13.09,90.21,19.6,39.34,8.52,78.69,16.99,118.03,25.53,37.39,8.12,74.76,16.3,112.14,24.46,8.12,1.77,16.24,3.59,24.36,5.37,1.58.35,3.28.41,5.09,3.04-8.61-.32-12.85,7-19.59,9.32-7.71,2.66-15.8,1.24-23.66-.39-27.53-5.74-54.62-13.35-82.17-19.05-49.52-10.25-98.88-21.27-148.32-31.92-54.48-11.74-108.91-23.73-163.5-34.95-16.93-3.48-34.36-4.93-51.68-3.34-10.43.96-19.52,6.19-28.31,11.82-21.39,13.71-35.59,33.65-48.37,54.91-11.01,18.31-23.26,35.81-38.23,51.06-9.45,9.63-20.47,17.72-34.32,20.19-9.38,1.67-18.86-3.15-23.78-11.21-9.74-15.97-11.71-32.91-8.49-51.27,3.75-21.44,9.41-42.19,17.63-62.29.95-2.32,1.84-4.67,1.74-7.23-.06-1.61.55-3.53-1.1-4.62-1.86-1.22-3.58-.11-5.03,1-2.91,2.22-5.79,4.49-8.53,6.91-11.67,10.35-20.58,23.04-29.96,35.35-12.9,16.93-25.98,33.73-39.08,50.5-1.83,2.35-4.06,4.46-6.38,6.33-3.04,2.44-6.57,3.27-10.28,1.48-3.62-1.75-5.3-4.73-5.64-8.76-.9-10.73,1.69-20.81,5.08-30.95-5.26,7.21-10.36,14.56-15.82,21.62-23.22,30.03-50.36,55.79-83.18,75.18-10.85,6.41-22.84,9-35.44,8.75-4.44-.09-7.89-2.23-11.14-5-10.79-9.2-14.49-21.56-15.56-35.02-2.35-29.66,6.3-57.25,16.15-84.6,1.69-4.7,3.37-9.4,5.15-14.07,1.17-3.06.17-4.88-2.62-6.52-7.33-4.32-15.65-4.26-23.62-5.67-23.43-4.14-47.15-5.51-70.84-7.29-18.41-1.38-36.84-2.17-55.28-2.89-4.5-.18-5.97,1.65-6.73,5.86-3.56,19.71-5.37,39.54-4.94,59.57.78,35.52,8.03,69.65,21.99,102.34,14.87,34.83,36.18,65.21,64.22,90.58,29.59,26.77,63.83,45.53,102.26,56.6,30.44,8.77,61.53,11.08,92.96,9.75,43.81-1.87,83.26-16.37,118.91-41.76,8.97-6.39,17.74-12.91,25.15-21.13,3.48-3.87,8.97-4.2,14.2-1.2,4.57,2.63,6.03,6.52,4.65,11.91-.32,1.26-1.06,2.01-1.95,2.77-27.68,23.5-58.07,42.33-92.83,53.52-25.68,8.27-51.99,11.83-79.03,12.57-43.69,1.19-84.06-10.44-122.55-29.41-22.11-10.9-42.18-25.31-60.77-41.72-22.66-20-42.17-42.53-57.38-68.68-18.73-32.2-30.57-66.77-35.33-103.75-1.74-13.54-3.15-27.11-2.76-40.77.48-16.97,2.04-33.85,5.62-50.48,1.39-6.47,1.44-6.5-5.01-6.49-18.99.02-37.99-.35-56.95.96-39.15,2.69-78.5,5.04-116.46,15.36-34.7,9.44-68.73,21.59-99.03,41.77-22.81,15.19-42.34,33.8-56.57,57.58-10.35,17.31-15.91,36.02-18.58,55.92-1.92,14.33.69,28.14,2.55,42.11.35,2.64.63,5.28,1.02,7.91,1.43,9.77-1,4.5-3.43,2.1-5.55-7.85-6.25-8.45-8.55-11.86-6.95-21.35-6.81-43.04-1.43-64.53,10.99-43.91,38.49-75.19,76.81-97.75,42.22-24.85,88.43-38.18,136.22-46.97,22.41-4.12,45-7.03,67.68-8.78,15.23-1.18,30.5-2.54,45.83-2.25,11.83.22,23.61-1.61,35.45-.93,3.39.2,4.7-1.64,5.45-4.56,4.65-18.17,11.81-35.35,20.54-51.9,1.86-3.53,3.88-6.98,5.95-10.4.7-1.16,1.24-2.88,3.62-2.24-1.33,6.6-5.04,12.21-7.5,18.27-5.9,14.52-11.23,29.22-15.2,44.39-1.59,6.06-1.56,5.69,4.42,6.55,8.32,1.21,16.64.5,24.95.84,21.42.88,42.82,2.03,64.2,3.74,15.41,1.23,30.77,2.87,46.16,4.24,3.75.34,7.32,1.33,11.32.34,9.98-2.48,16.61-7.54,21.33-17.34,11.48-23.86,21.88-48.23,34.03-71.78,24.65-47.8,53-93.19,87.04-134.91,11.08-13.58,23.13-26.23,37.96-35.87,6.01-3.91,12.16-7.12,19.75-7.62,14.86-.99,19.99,8.42,20.17,20.2.2,13.23-4.66,25.29-10.25,37.16-16.37,34.79-38.18,66.31-58.6,98.69-13.54,21.48-29.25,41.33-45.4,60.75-18.09,21.75-38,41.91-60.1,59.78-7.66,6.2-13.83,13.79-19.02,22.32-11.8,19.36-18.74,40.38-22.56,62.54-1.53,8.83-3.3,17.71-3.73,26.63-.69,14.51,5.44,23.28,22.22,20.57,13.91-2.25,25.69-9.8,37.1-17.75,32.32-22.54,56.48-52.83,79.65-84.01,10.82-14.56,21.01-29.58,30.2-45.25,2.49-4.25,6.85-6.41,10.93-5.17,4.48,1.36,4.5,5.23,4.63,8.96.41,11.94-3.65,22.9-7.39,33.93-.59,1.73-1.22,3.47-1.55,5.26-.25,1.34-1.62,2.99.15,4.09,1.58.99,3.31.25,4.72-.66,5.09-3.27,9.43-7.42,13.29-12.03,15.07-17.97,29.72-36.31,46.8-52.47,6.28-5.94,12.68-11.8,19.42-17.22,4.09-3.3,8.77-6.43,14.57-3.53,4.57,2.28,6.33,5.95,5.66,11.08-.99,7.51-3.48,14.55-6.26,21.51-7.03,17.63-14.53,35.08-21.14,52.86-5.97,16.06-11.32,32.37-11.24,49.88.03,5.67,1.38,10.83,4.25,15.69,4.55,7.7,10.29,9.86,18.57,6.09,11.78-5.37,20.69-14.2,28.85-24.13,17.68-21.52,32.92-44.85,50.18-66.67,16.15-20.42,36.69-33.74,62.4-38.19,14.52-2.51,29.17-1.33,43.66,1.4,23.9,4.5,47.77,9.1,71.45,14.65,52.48,12.31,104.89,24.9,157.55,36.44,44.04,9.66,87.97,19.78,132.07,29.17,17.39,3.7,34.51,8.8,52.22,10.98,3.16.39,8.45-2.82,9.32-5.83.8-2.76-1.18-2.9-3.06-3.3-14.8-3.18-29.58-6.41-44.38-9.61-41.47-8.95-82.93-17.91-124.4-26.81-55.94-12.01-111.9-23.97-167.85-35.94-12.52-2.68-25.19-4.82-37.56-8.1-16.24-4.3-32.61-7.93-49.15-10.75-9.03-1.54-18.09-1.89-27.28-.76-13.23,1.64-26.4,3.34-38.96,8.12-17.16,6.54-31.61,16.88-43.58,30.79-1.11,1.29-2.03,3.12-4.2,3.19ZM788.41,40.47c.05-6.71-1.86-7.94-7.91-5.72-4.57,1.68-8.89,3.79-12.62,6.94-11.47,9.71-21.61,20.68-30.32,32.92-16.6,23.34-31.67,47.66-46.76,71.99-18.51,29.85-36.39,60.05-51.13,91.98-2.71,5.88-4.82,12.04-7.11,18.12-.9,2.38-1.47,4.89.97,6.84,2.6,2.07,5.21,1.78,7.81-.05,1.09-.77,2.35-1.32,3.31-2.21,12.22-11.32,23.7-23.36,34.6-35.95,14.08-16.26,25.49-34.49,38.27-51.71,23.76-32,44.74-65.74,61.25-102.14,4.57-10.07,7.77-20.51,9.63-31.02Z" style="fill:url(#linear-gradient);"/></svg>